<?xml version="1.0" encoding="utf-8"?>
<!-- Generator: Adobe Illustrator 18.0.0, SVG Export Plug-In . SVG Version: 6.00 Build 0)  -->
<!DOCTYPE svg PUBLIC "-//W3C//DTD SVG 1.1//EN" "http://www.w3.org/Graphics/SVG/1.1/DTD/svg11.dtd">
<svg version="1.1" xmlns="http://www.w3.org/2000/svg" xmlns:xlink="http://www.w3.org/1999/xlink" x="0px" y="0px"
	 viewBox="0 0 28.4 32.8" enable-background="new 0 0 28.4 32.8" xml:space="preserve">
<g id="Calque_2">
</g>
<g id="Calque_4">
</g>
<g id="Calque_5">
	<polyline opacity="0.6" points="706.9,43.9 721.1,33.3 735.5,44 749.7,33.3 764,44 778.2,33.3 792.5,44 806.7,33.3 821,44 
		835.2,33.3 849.5,44 863.7,33.3 878,44 892.3,33.3 906.5,44 920.8,33.3 935,44 949.3,33.3 963.5,44 977.8,33.3 992.1,44 
		1006.3,33.3 1020.6,44 1034.8,33.3 1049.1,44 1063.4,33.3 1076.9,43.4 1076.9,43 1076.9,44 1076.9,-339.2 1063.4,-329.1 
		1049.1,-339.8 1034.8,-329.1 1020.6,-339.8 1006.3,-329.1 992.1,-339.8 977.8,-329.1 963.5,-339.8 949.3,-329.1 935,-339.8 
		920.8,-329.1 906.5,-339.8 892.3,-329.1 878,-339.8 863.7,-329.1 849.5,-339.8 835.2,-329.1 821,-339.8 806.7,-329.1 792.5,-339.8 
		778.2,-329.1 764,-339.8 749.7,-329.1 735.5,-339.8 721.1,-329.1 706.9,-339.7 706.9,44 	"/>
</g>
<g id="Calque_1">
	<g>
		
			<text transform="matrix(0.9824 0 0 1 -990.4265 -880.6718)" fill="#FFFFFF" font-family="'NeutraText-Light'" font-size="15.1576">nowave.io</text>
	</g>
</g>
<g id="Calque_3">
	<g>
		<polygon fill="#F7E72E" points="14.2,18.8 6.1,0 0,0 14.2,32.8 28.4,0 22.3,0 		"/>
	</g>
</g>
</svg>
