<?xml version="1.0" encoding="utf-8"?>
<!-- Generator: Adobe Illustrator 18.0.0, SVG Export Plug-In . SVG Version: 6.00 Build 0)  -->
<!DOCTYPE svg PUBLIC "-//W3C//DTD SVG 1.1//EN" "http://www.w3.org/Graphics/SVG/1.1/DTD/svg11.dtd">
<svg version="1.1" id="Calque_1" xmlns="http://www.w3.org/2000/svg" xmlns:xlink="http://www.w3.org/1999/xlink" x="0px" y="0px"
	 viewBox="0 0 181 38" enable-background="new 0 0 181 38" xml:space="preserve">
<path fill="#C6AA69" d="M7.5,26.3c0,2-0.9,2.9-2.3,2.9c-1.5,0-2.2-0.9-2.2-2.6c0-1.7,0-5.7,0-7.5v-6.8C3,10,3.9,9.4,5.2,9.4
	c1.5,0,2.2,0.9,2.3,2.7c0,1.2,0,2.4,0,3.5H6.4c0-0.8,0-3,0-3.8c0-0.9-0.5-1.2-1.1-1.2c-0.7,0-1.1,0.5-1.1,1.4c0,0.9,0,5.7,0,7.1
	c0,1.6,0,6.5,0,7.1c0.1,1.5,0.5,1.9,1.1,1.9c0.6,0,1.1-0.3,1.1-2V23h1.1V26.3z"/>
<path fill="#C6AA69" d="M18.3,29.1V9.5h3.8v1.1h-2.7v8.1h2.3v1h-2.3V28h2.7v1.1H18.3z"/>
<path fill="#C6AA69" d="M34.7,10.6v18.5h-1.1V10.6H32V9.5h4.4v1.1H34.7z"/>
<path fill="#C6AA69" d="M49.2,10.6v18.5h-1.1V10.6h-1.7V9.5h4.4v1.1H49.2z"/>
<path fill="#C6AA69" d="M61.5,29.1V9.5h3.8v1.1h-2.7v8.1h2.3v1h-2.3V28h2.7v1.1H61.5z"/>
<path fill="#C6AA69" d="M89.8,29.2c-1.3,0-2.1-0.8-2.1-2.8v-2.3h1v2c0,1.7,0.3,2.1,1.1,2.1c0.7,0,1.1-0.4,1.1-2.3
	c0-2.4-0.2-3.5-1.1-5.8c-0.2-0.5-0.6-1.3-0.8-2c-0.9-2.1-1.4-3.5-1.4-5.4c0-2.3,0.9-3.3,2.3-3.3c1.5,0,2.1,1.1,2.1,3
	c0,0.4,0,2.3,0,2.3h-1.1v-2.2c0-1.3-0.2-2-1.1-2c-0.8,0-1.1,0.6-1.1,2.3c0,1.6,0.5,3.1,1.3,4.8c0.1,0.3,0.6,1.4,0.8,1.9
	c0.8,2,1.2,3.6,1.2,6.2C92.1,28.4,91.1,29.2,89.8,29.2z"/>
<path fill="#C6AA69" d="M102.8,29.1V9.5h3.8v1.1h-2.7v8.1h2.3v1h-2.3V28h2.7v1.1H102.8z"/>
<path fill="#C6AA69" d="M122.4,29.1l0-14.8l-1.7,14.8h-1l-1.6-14.8l0,14.8h-1V9.5h1.3l1.8,16l1.9-16h1.3v19.6H122.4z"/>
<path fill="#C6AA69" d="M134.9,29.1h-1.1l2-19.6h1.4l1.5,19.6h-1.1c0,0-0.3-4.5-0.3-4.7h-2.1C135.3,24.6,134.9,29.1,134.9,29.1z
	 M136.6,14.5c-0.1-0.9-0.1-3.3-0.1-3.3s0,2.4-0.1,3.3c-0.1,0.6-1,9-1,9h2C137.3,23.4,136.6,15.1,136.6,14.5z"/>
<path fill="#C6AA69" d="M149.2,29.1V9.5h1.1v19.6H149.2z"/>
<path fill="#C6AA69" d="M164.6,29.1l-2.1-15v15h-1V9.5h1.2l2.1,14.6V9.5h1v19.6H164.6z"/>
<path fill="#C6AA69" d="M177,29.1V9.5h3.8v1.1h-2.7v8.1h2.3v1h-2.3V28h2.7v1.1H177z"/>
<line fill="none" stroke="#C6AA69" stroke-miterlimit="10" x1="0" y1="37.5" x2="181" y2="37.5"/>
<line fill="none" stroke="#C6AA69" stroke-miterlimit="10" x1="0" y1="0.5" x2="181" y2="0.5"/>
</svg>
