<?xml version="1.0" encoding="utf-8"?>
<!-- Generator: Adobe Illustrator 18.0.0, SVG Export Plug-In . SVG Version: 6.00 Build 0)  -->
<!DOCTYPE svg PUBLIC "-//W3C//DTD SVG 1.1//EN" "http://www.w3.org/Graphics/SVG/1.1/DTD/svg11.dtd">
<svg version="1.1" xmlns="http://www.w3.org/2000/svg" xmlns:xlink="http://www.w3.org/1999/xlink" x="0px" y="0px"
	 viewBox="0 0 24 24" enable-background="new 0 0 24 24" xml:space="preserve">
<g id="Calque_7">
	<rect x="-801.9" y="101" opacity="0.8" width="826.8" height="418.8"/>
	<g>
		<g>
			<path fill="#F6E62E" d="M-375.5,180.3c-10.9,0-19.9-11.3-20.9-12.6l20.9,48.1l20.9-48.3h0C-355.2,168.5-364.3,180.3-375.5,180.3z
				"/>
		</g>
		<path fill="#BA9C56" d="M-375.5,154.9c-11.3,0-20.5,12.2-21,12.8c0.4,0.6,9.6,12.8,21,12.8c11.3,0,20.5-12.2,21-12.8
			C-354.9,167-364.2,154.9-375.5,154.9z M-375.5,179.2c-6.4,0-11.6-5.2-11.6-11.6s5.2-11.6,11.6-11.6s11.6,5.2,11.6,11.6
			S-369.1,179.2-375.5,179.2z"/>
	</g>
</g>
<g id="Calque_6">
	<g>
		<rect x="0.5" y="0.5" fill="none" stroke="#BA9C56" stroke-miterlimit="10" width="23" height="23"/>
		<g>
			<line fill="none" stroke="#FFED00" stroke-miterlimit="10" x1="4.2" y1="3.8" x2="20.2" y2="19.8"/>
			<line fill="none" stroke="#FFED00" stroke-miterlimit="10" x1="20.2" y1="3.8" x2="4.2" y2="19.8"/>
		</g>
	</g>
	<g>
		<rect x="-668.1" y="232.5" fill="none" width="577.1" height="107"/>
		<text transform="matrix(0.9824 0 0 1 -663.3328 247.7408)"><tspan x="0" y="0" fill="#F1F1F1" font-family="'OpenSans'" font-size="20">Nowave explore des thématiques contemporaines à travers le </tspan><tspan x="102.8" y="20" fill="#F1F1F1" font-family="'OpenSans'" font-size="20">regard de réalisateurs du monde entier.</tspan><tspan x="17" y="60" fill="#F1F1F1" font-family="'OpenSans-Light'" font-size="17">Pour 12,99€ par mois, explorez tous les themas, et partagez un film par </tspan><tspan x="56.5" y="80" fill="#F1F1F1" font-family="'OpenSans-Light'" font-size="17">semaine avec la personne de votre choix pendant 24 heures.</tspan></text>
	</g>
	<g>
		<rect x="-318.8" y="404" fill="#AE8D45" stroke="#AE8D45" stroke-miterlimit="10" width="229" height="54"/>
	</g>
	<g>
		<text transform="matrix(0.9824 0 0 1 -263.9587 436.2241)" fill="#FFFFFF" font-family="'OpenSans-Bold'" font-size="14.8904">share the vision</text>
	</g>
	<rect x="-670" y="404" fill="#FFFFFF" stroke="#AE8D45" stroke-miterlimit="10" width="351" height="54"/>
	<g>
		<text transform="matrix(1 0 0 1 -644.7822 436.7969)" fill="#A3A3A3" font-family="'OpenSans-Light'" font-size="20.3488">Votre email</text>
	</g>
	<text transform="matrix(0.9824 0 0 1 -493.4674 392.9359)" fill="#F1F1F1" font-family="'OpenSansLight-Italic'" font-size="15">Soyez averti de la date de lancement !</text>
	<rect x="336.4" y="117.5" fill="#F1F1F1" width="640" height="360"/>
</g>
</svg>
