<?xml version="1.0" encoding="utf-8"?>
<!-- Generator: Adobe Illustrator 18.0.0, SVG Export Plug-In . SVG Version: 6.00 Build 0)  -->
<!DOCTYPE svg PUBLIC "-//W3C//DTD SVG 1.1//EN" "http://www.w3.org/Graphics/SVG/1.1/DTD/svg11.dtd">
<svg version="1.1" id="Calque_1" xmlns="http://www.w3.org/2000/svg" xmlns:xlink="http://www.w3.org/1999/xlink" x="0px" y="0px"
	 viewBox="0 0 109.6 25.7" enable-background="new 0 0 109.6 25.7" xml:space="preserve">
<g>
	<path fill="#FFFFFF" d="M2.3,4.9C1.9,4.2,1.2,3.2,1.2,3.2s0.1,1.1,0.1,1.9v20.3H0V0h0.4l15.4,20.8c0.5,0.6,1.1,1.7,1.1,1.7
		s-0.1-1.1-0.1-1.9V0.3h1.3v25.4h-0.4L2.3,4.9z"/>
	<path fill="#FFFFFF" d="M17.4,12.8C17.4,5.2,22.9,0,29.7,0S42,5.2,42,12.8c0,7.6-5.5,12.8-12.3,12.8S17.4,20.5,17.4,12.8z
		 M40.5,12.8c0-6.6-4.6-11.5-10.8-11.5c-6.2,0-10.8,4.9-10.8,11.5c0,6.6,4.6,11.5,10.8,11.5C35.9,24.3,40.5,19.4,40.5,12.8z"/>
	<path fill="#FFFFFF" d="M73.5,0h0.4l9.7,25.4h-1.5l-1.8-4.9H67l-1.8,4.9h-1.4L73.5,0z M79.8,19.2L74.4,4.9C74,4,73.7,2.6,73.7,2.6
		S73.3,4,73,4.9l-5.4,14.3H79.8z"/>
	<path fill="#FFFFFF" d="M76.3,0.3h1.6l7.8,20.5c0.3,0.8,0.7,2.3,0.7,2.3s0.4-1.5,0.7-2.3l7.8-20.5h1.4l-9.7,25.4h-0.4L76.3,0.3z"/>
	<path fill="#FFFFFF" d="M95.1,0.3h14v1.3H96.5V15h11.3v1.3H96.5V24h13.1v1.3H95.1V0.3z"/>
	<path fill="#FFFFFF" d="M69.4,0.3L62,20.5c-0.2,0.7-0.6,1.8-0.6,1.8s-0.2-1.1-0.4-1.8L54.1,0h-0.2v3c0,0.2,0.2,1.2,0.4,1.8l7,20.8
		h0.4l9.2-25.4H69.4z"/>
	<path fill="#FFFFFF" d="M38.4,0.3l7.4,20.2c0.2,0.7,0.6,1.8,0.6,1.8s0.2-1.1,0.4-1.8L53.7,0l0.2,0v3c0,0.2-0.2,1.2-0.4,1.8l-7,20.8
		h-0.4L37,0.3H38.4z"/>
</g>
</svg>
