<?xml version="1.0" encoding="utf-8"?>
<!-- Generator: Adobe Illustrator 18.0.0, SVG Export Plug-In . SVG Version: 6.00 Build 0)  -->
<!DOCTYPE svg PUBLIC "-//W3C//DTD SVG 1.1//EN" "http://www.w3.org/Graphics/SVG/1.1/DTD/svg11.dtd">
<svg version="1.1" id="Calque_1" xmlns="http://www.w3.org/2000/svg" xmlns:xlink="http://www.w3.org/1999/xlink" x="0px" y="0px"
	 viewBox="0 0 200 22" enable-background="new 0 0 200 22" xml:space="preserve">
<rect fill="#C6AA69" width="200" height="22"/>
<g>
	<path fill="#FFFFFF" d="M16.2,15.4h-1.7l-3.7-9.3h1.7l2.8,7l2.8-7h1.7L16.2,15.4z"/>
	<path fill="#FFFFFF" d="M28.7,14.1c-0.9,0.9-2.1,1.4-3.4,1.4c-1.4,0-2.5-0.5-3.4-1.4s-1.4-2.1-1.4-3.4s0.5-2.5,1.4-3.4
		s2.1-1.4,3.4-1.4c1.4,0,2.5,0.5,3.4,1.4s1.4,2.1,1.4,3.4S29.6,13.2,28.7,14.1z M27.6,8.3c-0.6-0.7-1.4-1-2.3-1
		c-0.9,0-1.7,0.3-2.3,1s-0.9,1.5-0.9,2.4c0,0.9,0.3,1.7,0.9,2.4s1.4,1,2.3,1c0.9,0,1.7-0.3,2.3-1s0.9-1.5,0.9-2.4
		C28.5,9.7,28.2,8.9,27.6,8.3z"/>
	<path fill="#FFFFFF" d="M32,6.1h1.5v9.3H32V6.1z"/>
	<path fill="#FFFFFF" d="M43.4,9.1c0,1.5-0.7,2.5-2,2.9l2.4,3.4h-2l-2.2-3.1h-2v3.1h-1.5V6.1h3.4c1.4,0,2.4,0.2,3,0.7
		C43.1,7.3,43.4,8,43.4,9.1z M41.4,10.4c0.3-0.3,0.5-0.7,0.5-1.3s-0.2-1-0.5-1.3c-0.3-0.2-0.9-0.3-1.7-0.3h-2v3.3h1.9
		C40.5,10.8,41.1,10.7,41.4,10.4z"/>
	<path fill="#FFFFFF" d="M49.2,15.4V6.1h1.5v7.8H55v1.5H49.2z"/>
	<path fill="#FFFFFF" d="M57.9,13.3L57,15.4h-1.6l4-9.3h1.6l4,9.3h-1.6l-0.9-2.1H57.9z M61.9,11.8L60.2,8l-1.7,3.8H61.9z"/>
	<path fill="#FFFFFF" d="M73.9,15.4h-4V6.1h3.6c0.6,0,1.2,0.1,1.6,0.2c0.4,0.2,0.8,0.4,1,0.6c0.4,0.5,0.6,1,0.6,1.6
		c0,0.7-0.2,1.3-0.7,1.6c-0.2,0.1-0.3,0.2-0.3,0.2c-0.1,0-0.2,0.1-0.3,0.2c0.6,0.1,1,0.4,1.4,0.8c0.3,0.4,0.5,0.9,0.5,1.5
		c0,0.6-0.2,1.2-0.7,1.7C76.1,15.1,75.2,15.4,73.9,15.4z M71.5,9.9h2c1.1,0,1.7-0.4,1.7-1.2c0-0.4-0.1-0.8-0.4-1S74,7.5,73.5,7.5h-2
		V9.9z M71.5,13.9h2.4c0.6,0,1-0.1,1.3-0.3s0.5-0.5,0.5-1c0-0.8-0.6-1.2-1.9-1.2h-2.2V13.9z"/>
	<path fill="#FFFFFF" d="M80.4,13.3l-0.9,2.1h-1.6l4-9.3h1.6l4,9.3h-1.6l-0.9-2.1H80.4z M84.3,11.8L82.7,8L81,11.8H84.3z"/>
	<path fill="#FFFFFF" d="M95.6,6.1h1.5v9.3h-1.7l-5.2-6.8v6.8h-1.5V6.1h1.5l5.3,7V6.1z"/>
	<path fill="#FFFFFF" d="M106.6,7.3c0.9,0.8,1.3,1.9,1.3,3.4s-0.4,2.6-1.3,3.4c-0.9,0.8-2.2,1.3-3.9,1.3h-3V6.1h3.1
		C104.5,6.1,105.8,6.5,106.6,7.3z M106.4,10.7c0-2.1-1.2-3.2-3.6-3.2h-1.5v6.4h1.7c1.1,0,2-0.3,2.5-0.8
		C106.1,12.5,106.4,11.8,106.4,10.7z"/>
	<path fill="#FFFFFF" d="M116.4,6.1v1.5h-4.9V10h4.4v1.4h-4.4v2.5h5v1.5H110V6.1H116.4z"/>
	<path fill="#FFFFFF" d="M123.4,13.3l-0.9,2.1h-1.6l4-9.3h1.6l4,9.3h-1.6l-0.9-2.1H123.4z M127.3,11.8L125.7,8l-1.7,3.8H127.3z"/>
	<path fill="#FFFFFF" d="M138.7,6.1h1.5v9.3h-1.7l-5.2-6.8v6.8h-1.5V6.1h1.5l5.3,7V6.1z"/>
	<path fill="#FFFFFF" d="M149.6,6.1h1.5v9.3h-1.7l-5.2-6.8v6.8h-1.5V6.1h1.5l5.3,7V6.1z"/>
	<path fill="#FFFFFF" d="M161.3,14.1c-0.9,0.9-2.1,1.4-3.4,1.4c-1.4,0-2.5-0.5-3.4-1.4c-0.9-0.9-1.4-2.1-1.4-3.4s0.5-2.5,1.4-3.4
		c0.9-0.9,2.1-1.4,3.4-1.4c1.4,0,2.5,0.5,3.4,1.4c0.9,0.9,1.4,2.1,1.4,3.4S162.3,13.2,161.3,14.1z M160.2,8.3c-0.6-0.7-1.4-1-2.3-1
		c-0.9,0-1.7,0.3-2.3,1c-0.6,0.7-0.9,1.5-0.9,2.4c0,0.9,0.3,1.7,0.9,2.4c0.6,0.7,1.4,1,2.3,1c0.9,0,1.7-0.3,2.3-1
		c0.6-0.7,0.9-1.5,0.9-2.4C161.1,9.7,160.8,8.9,160.2,8.3z"/>
	<path fill="#FFFFFF" d="M171.5,6.1h1.5v9.3h-1.7l-5.2-6.8v6.8h-1.5V6.1h1.5l5.3,7V6.1z"/>
	<path fill="#FFFFFF" d="M179.8,13.9c0.5,0,1-0.1,1.4-0.3c0.4-0.2,0.8-0.5,1.2-0.9l1,1c-1,1.1-2.1,1.6-3.5,1.6s-2.5-0.5-3.4-1.4
		c-0.9-0.9-1.4-2.1-1.4-3.4c0-1.4,0.5-2.5,1.4-3.5c0.9-0.9,2.1-1.4,3.5-1.4s2.6,0.5,3.6,1.6l-1,1.1c-0.4-0.4-0.8-0.7-1.2-0.9
		c-0.4-0.2-0.8-0.3-1.4-0.3c-0.9,0-1.7,0.3-2.3,0.9s-0.9,1.4-0.9,2.3s0.3,1.7,0.9,2.4C178.2,13.6,178.9,13.9,179.8,13.9z"/>
	<path fill="#FFFFFF" d="M191.7,6.1v1.5h-4.9V10h4.4v1.4h-4.4v2.5h5v1.5h-6.6V6.1H191.7z"/>
</g>
</svg>
