<svg xmlns="http://www.w3.org/2000/svg" viewBox="0 0 28.4 32.8"><path opacity=".6" d="M706.9 43.9l14.2-10.6L735.5 44l14.2-10.7L764 44l14.2-10.7L792.5 44l14.2-10.7L821 44l14.2-10.7L849.5 44l14.2-10.7L878 44l14.3-10.7L906.5 44l14.3-10.7L935 44l14.3-10.7L963.5 44l14.3-10.7L992.1 44l14.2-10.7 14.3 10.7 14.2-10.7 14.3 10.7 14.3-10.7 13.5 10.1V43v1-383.2l-13.5 10.1-14.3-10.7-14.3 10.7-14.2-10.7-14.3 10.7-14.2-10.7-14.3 10.7-14.3-10.7-14.2 10.7-14.3-10.7-14.2 10.7-14.3-10.7-14.2 10.7-14.3-10.7-14.3 10.7-14.2-10.7-14.3 10.7-14.2-10.7-14.3 10.7-14.2-10.7-14.3 10.7-14.2-10.7-14.3 10.7-14.2-10.7-14.4 10.7-14.2-10.6V44"/><text transform="matrix(.9824 0 0 1 -990.427 -880.672)" fill="#FFF" font-family="'NeutraText-Light'" font-size="15.158">nowave.io</text><path fill="#F7E72E" d="M14.2 18.8L6.1 0H0l14.2 32.8L28.4 0h-6.1z"/></svg>