<svg id="圖層_1" xmlns="http://www.w3.org/2000/svg" viewBox="0 0 300 86"><style>.st0{fill:#fff}</style><g id="g49421" transform="matrix(2.078 0 0 2.078 -15.348 -50.231)"><g id="g48613"><path id="path48615" class="st0" d="M65.6 36c-.4-.2-1-.3-2-.3h-3.8v4.8h3.6c1.1 0 1.7-.1 2.2-.4.8-.4 1.3-1.2 1.3-2.2 0-.8-.5-1.5-1.3-1.9m-1-7.2c-.4-.2-.9-.3-1.6-.3h-3.2V33h3c1 0 1.5-.2 2-.4.7-.4 1-1.1 1-1.9 0-.8-.4-1.6-1.2-1.9m-7.8 14.5V25.8h6.4c1.4 0 2.3.2 3 .6 1.8.9 2.6 2.5 2.6 4 0 1.7-.7 2.8-2.1 3.7V34c2 .4 3.2 1.9 3.2 4 0 2.4-1.4 4.2-3.9 4.9-.9.3-1.8.4-3.3.4h-5.9z"/></g><path id="rect48617" class="st0" d="M87.4 25.8h3v17.5h-3z"/><path id="rect48619" class="st0" d="M109.2 25.8h3v17.5h-3z"/><g id="g48621"><path id="path48623" class="st0" d="M121.9 25.6c1.9 0 3.8.5 4.9 1l-.1 2.9c-1.5-.7-3.1-1.2-4.9-1.2-1.6 0-3.1.5-3.1 1.9 0 3.6 9 2.1 9 8.1 0 3.3-2.8 5.3-6.8 5.3-2.7 0-4.6-.8-5.9-1.6l1.2-2.4c1.1.7 2.8 1.4 4.8 1.4 1.8 0 3.5-.7 3.5-2.3 0-3.7-8.9-2.1-8.9-8.1 0-3.2 2.6-5 6.3-5"/></g><path id="polygon48625" class="st0" d="M141.9 25.8h3v17.5h-3v-7.6h-8.5v7.6h-3V25.8h3v7.1h8.5z"/><g id="g48627"><path id="path48629" class="st0" d="M63.4 46.3c1.9 0 3.4.4 4.9 1l-.9 2.5c-.8-.4-2-.9-3.6-.9-3.3 0-5.4 2.8-5.4 6.2 0 3.5 1.9 6.3 5.4 6.3 1.7 0 2.8-.5 3.6-.9l.9 2.5c-1.5.7-2.9 1-4.9 1-5.2 0-8.2-3.7-8.2-8.9 0-4.7 3-8.8 8.2-8.8"/><path id="path48631" class="st0" d="M129 46.3c1.9 0 3.4.4 4.9 1l-.9 2.5c-.9-.4-2-.9-3.6-.9-3.3 0-5.4 2.8-5.4 6.2 0 3.5 1.9 6.3 5.4 6.3 1.7 0 2.8-.5 3.6-.9l.9 2.5c-1.5.7-2.9 1-4.9 1-5.2 0-8.2-3.7-8.2-8.9-.1-4.7 2.9-8.8 8.2-8.8"/><path id="path48633" class="st0" d="M82.2 55.3c0-3.8-2.2-6.3-5.1-6.3-2.9 0-5.1 2.4-5.1 6.3 0 3.8 2.2 6.3 5.1 6.3 2.9-.1 5.1-2.5 5.1-6.3m3.2-.1c0 5.3-3.3 9-8.3 9-5 0-8.3-3.6-8.3-8.9 0-5.3 3.3-9 8.3-9 5 0 8.3 3.7 8.3 8.9"/><path id="path48635" class="st0" d="M87.4 57.4V46.5h3v11c0 2.9 1.6 4 4.1 4 2.5 0 4.1-1.1 4.1-4v-11h3v10.9c0 4.8-2.7 6.8-7.1 6.8-4.4 0-7.1-2.1-7.1-6.8"/><path id="path48637" class="st0" d="M107.1 51.2V64h-3V46.5h3.2l8.1 11.9h.1c-.1-.6-.1-1.5-.1-2.3v-9.6h3V64h-2.7c.1 0-8.6-12.8-8.6-12.8z"/></g><path id="rect48639" class="st0" d="M136.2 46.5h3V64h-3z"/><path id="polygon48641" class="st0" d="M144.9 61.3h6.8V64h-9.8V46.5h3z"/><path id="polygon48643" class="st0" d="M92.7 25.8v2.7h5.6v14.8h3V28.5h5.6v-2.7z"/><path id="path48647" class="st0" d="M78.1 28.5H75v5.3h3c2.2 0 3.2-1.1 3.2-2.7-.1-1.5-1-2.6-3.1-2.6M82 43.3c-2.5-5.3-3.2-6.8-4.3-6.8H75v6.8h-3V25.8h5.9c4.5 0 6.2 2.4 6.2 5 0 2.3-1.4 3.9-3.2 4.5.8.5 1.6 2.1 4.6 7.9H82v.1z"/><path id="path48649" class="st0" d="M27.4 34.2c0 5.5-4.5 10-10 10s-10-4.5-10-10 4.5-10 10-10 10 4.4 10 10"/><path id="path48651" class="st0" d="M48.8 34.2c0 5.5-4.5 10-10 10s-10-4.5-10-10 4.5-10 10-10 10 4.4 10 10"/><path id="path48653" class="st0" d="M27.4 55.6c0 5.5-4.5 10-10 10s-10-4.5-10-10 4.5-10 10-10 10 4.4 10 10"/><path id="path48655" class="st0" d="M48.8 55.6c0 5.5-4.5 10-10 10s-10-4.5-10-10 4.5-10 10-10 10 4.4 10 10"/></g></svg>