<svg id="Calque_1" xmlns="http://www.w3.org/2000/svg" xmlns:xlink="http://www.w3.org/1999/xlink" viewBox="0 0 260.8 79.4"><style>.st0{clip-path:url(#SVGID_2_);fill:#fff}.st1{clip-path:url(#SVGID_10_)}.st2{clip-path:url(#SVGID_20_)}.st3{clip-path:url(#SVGID_22_)}.st4{clip-path:url(#SVGID_30_)}.st5{clip-path:url(#SVGID_66_)}</style><defs><path id="SVGID_1_" d="M451.7 85.5H.1V-5.2h451.6"/></defs><clipPath id="SVGID_2_"><use xlink:href="#SVGID_1_" overflow="visible"/></clipPath><path class="st0" d="M7.7 39.7C7.7 22 18.1 6.9 33.2 0H0v79.4h33.3C18.2 72.5 7.7 57.3 7.7 39.7M82.2 8.8L66.9 23.9c-4-3.9-9.5-6.4-15.5-6.4-12.2 0-22.1 9.9-22.1 22.1 0 12.2 9.9 22.1 22.1 22.1 6 0 11.5-2.4 15.5-6.3l15.2 15.2c-3.6 3.6-7.9 6.5-12.6 8.7h21.2V0H69.6c4.7 2.2 9 5.1 12.6 8.8zM147.4 0h-36.2l36.2 43.3V0zm-34.1 79.4h36l-36-43.1v43.1zm64.5-39.7c0-17.7 10.4-32.8 25.5-39.7h-33.2v79.4h33.3c-15.1-6.9-25.6-22.1-25.6-39.7zM239.6 0c4.7 2.2 9 5.1 12.7 8.8L237 23.9c-4-3.9-9.5-6.4-15.5-6.4-12.2 0-22.1 9.9-22.1 22.1 0 12.2 9.9 22.1 22.1 22.1 6 0 11.5-2.4 15.5-6.3l15.2 15.2c-3.6 3.6-7.9 6.5-12.6 8.7h21.2V0h-21.2z"/><defs><path id="SVGID_3_" d="M0-5.4h452v91H0z"/></defs><clipPath id="SVGID_4_"><use xlink:href="#SVGID_3_" overflow="visible"/></clipPath><defs><path id="SVGID_5_" d="M0-5.4h452v91H0z"/></defs><clipPath id="SVGID_6_"><use xlink:href="#SVGID_5_" overflow="visible"/></clipPath><defs><path id="SVGID_7_" d="M0-5.4h452v91H0z"/></defs><clipPath id="SVGID_8_"><use xlink:href="#SVGID_7_" overflow="visible"/></clipPath><defs><path id="SVGID_9_" d="M0-5.4h452v91H0z"/></defs><clipPath id="SVGID_10_"><use xlink:href="#SVGID_9_" overflow="visible"/></clipPath><path class="st1" d="M316.5-3.4l3.2-.8"/><defs><path id="SVGID_11_" d="M0-5.4h452v91H0z"/></defs><clipPath id="SVGID_12_"><use xlink:href="#SVGID_11_" overflow="visible"/></clipPath><defs><path id="SVGID_13_" d="M0-5.4h452v91H0z"/></defs><clipPath id="SVGID_14_"><use xlink:href="#SVGID_13_" overflow="visible"/></clipPath><defs><path id="SVGID_15_" d="M0-5.4h452v91H0z"/></defs><clipPath id="SVGID_16_"><use xlink:href="#SVGID_15_" overflow="visible"/></clipPath><defs><path id="SVGID_17_" d="M0-5.4h452v91H0z"/></defs><clipPath id="SVGID_18_"><use xlink:href="#SVGID_17_" overflow="visible"/></clipPath><defs><path id="SVGID_19_" d="M0-5.4h452v91H0z"/></defs><clipPath id="SVGID_20_"><use xlink:href="#SVGID_19_" overflow="visible"/></clipPath><path class="st2" d="M385-3.4l3.2-.8"/><defs><path id="SVGID_21_" d="M0-5.4h452v91H0z"/></defs><clipPath id="SVGID_22_"><use xlink:href="#SVGID_21_" overflow="visible"/></clipPath><path class="st3" d="M394.3-5.1h3.4"/><defs><path id="SVGID_23_" d="M0-5.4h452v91H0z"/></defs><clipPath id="SVGID_24_"><use xlink:href="#SVGID_23_" overflow="visible"/></clipPath><defs><path id="SVGID_25_" d="M0-5.4h452v91H0z"/></defs><clipPath id="SVGID_26_"><use xlink:href="#SVGID_25_" overflow="visible"/></clipPath><defs><path id="SVGID_27_" d="M0-5.4h452v91H0z"/></defs><clipPath id="SVGID_28_"><use xlink:href="#SVGID_27_" overflow="visible"/></clipPath><defs><path id="SVGID_29_" d="M0-5.4h452v91H0z"/></defs><clipPath id="SVGID_30_"><use xlink:href="#SVGID_29_" overflow="visible"/></clipPath><path class="st4" d="M445.5-5.2h3.2"/><g><defs><path id="SVGID_31_" d="M0-5.4h452v91H0z"/></defs><clipPath id="SVGID_32_"><use xlink:href="#SVGID_31_" overflow="visible"/></clipPath></g><g><defs><path id="SVGID_33_" d="M0-5.4h452v91H0z"/></defs><clipPath id="SVGID_34_"><use xlink:href="#SVGID_33_" overflow="visible"/></clipPath></g><g><defs><path id="SVGID_35_" d="M0-5.4h452v91H0z"/></defs><clipPath id="SVGID_36_"><use xlink:href="#SVGID_35_" overflow="visible"/></clipPath></g><g><defs><path id="SVGID_37_" d="M0-5.4h452v91H0z"/></defs><clipPath id="SVGID_38_"><use xlink:href="#SVGID_37_" overflow="visible"/></clipPath></g><g><defs><path id="SVGID_39_" d="M0-5.4h452v91H0z"/></defs><clipPath id="SVGID_40_"><use xlink:href="#SVGID_39_" overflow="visible"/></clipPath></g><g><defs><path id="SVGID_41_" d="M0-5.4h452v91H0z"/></defs><clipPath id="SVGID_42_"><use xlink:href="#SVGID_41_" overflow="visible"/></clipPath></g><g><defs><path id="SVGID_43_" d="M0-5.4h452v91H0z"/></defs><clipPath id="SVGID_44_"><use xlink:href="#SVGID_43_" overflow="visible"/></clipPath></g><g><defs><path id="SVGID_45_" d="M0-5.4h452v91H0z"/></defs><clipPath id="SVGID_46_"><use xlink:href="#SVGID_45_" overflow="visible"/></clipPath></g><g><defs><path id="SVGID_47_" d="M0-5.4h452v91H0z"/></defs><clipPath id="SVGID_48_"><use xlink:href="#SVGID_47_" overflow="visible"/></clipPath></g><g><defs><path id="SVGID_49_" d="M0-5.4h452v91H0z"/></defs><clipPath id="SVGID_50_"><use xlink:href="#SVGID_49_" overflow="visible"/></clipPath></g><g><defs><path id="SVGID_51_" d="M0-5.4h452v91H0z"/></defs><clipPath id="SVGID_52_"><use xlink:href="#SVGID_51_" overflow="visible"/></clipPath></g><g><defs><path id="SVGID_53_" d="M0-5.4h452v91H0z"/></defs><clipPath id="SVGID_54_"><use xlink:href="#SVGID_53_" overflow="visible"/></clipPath></g><g><defs><path id="SVGID_55_" d="M0-5.4h452v91H0z"/></defs><clipPath id="SVGID_56_"><use xlink:href="#SVGID_55_" overflow="visible"/></clipPath></g><g><defs><path id="SVGID_57_" d="M0-5.4h452v91H0z"/></defs><clipPath id="SVGID_58_"><use xlink:href="#SVGID_57_" overflow="visible"/></clipPath></g><g><defs><path id="SVGID_59_" d="M0-5.4h452v91H0z"/></defs><clipPath id="SVGID_60_"><use xlink:href="#SVGID_59_" overflow="visible"/></clipPath></g><g><defs><path id="SVGID_61_" d="M0-5.4h452v91H0z"/></defs><clipPath id="SVGID_62_"><use xlink:href="#SVGID_61_" overflow="visible"/></clipPath></g><g><defs><path id="SVGID_63_" d="M451.7 85.5H.1V-5.2h451.6"/></defs><clipPath id="SVGID_64_"><use xlink:href="#SVGID_63_" overflow="visible"/></clipPath><g><defs><path id="SVGID_65_" d="M451.7 85.5H.1V-5.2h451.6"/></defs><clipPath id="SVGID_66_"><use xlink:href="#SVGID_65_" overflow="visible"/></clipPath><path class="st5" d="M337.9 85.6"/></g></g><g><defs><path id="SVGID_67_" d="M0-5.4h452v91H0z"/></defs><clipPath id="SVGID_68_"><use xlink:href="#SVGID_67_" overflow="visible"/></clipPath><defs><path id="SVGID_69_" d="M0-5.4h452v91H0z"/></defs><clipPath id="SVGID_70_"><use xlink:href="#SVGID_69_" overflow="visible"/></clipPath><defs><path id="SVGID_71_" d="M0-5.4h452v91H0z"/></defs><clipPath id="SVGID_72_"><use xlink:href="#SVGID_71_" overflow="visible"/></clipPath><g><defs><path id="SVGID_73_" d="M0-5.4h452v91H0z"/></defs><clipPath id="SVGID_74_"><use xlink:href="#SVGID_73_" overflow="visible"/></clipPath></g><g><defs><path id="SVGID_75_" d="M0-5.4h452v91H0z"/></defs><clipPath id="SVGID_76_"><use xlink:href="#SVGID_75_" overflow="visible"/></clipPath></g></g><g><defs><path id="SVGID_77_" d="M451.7 85.5H.1V-5.2h451.6"/></defs><clipPath id="SVGID_78_"><use xlink:href="#SVGID_77_" overflow="visible"/></clipPath><g><defs><path id="SVGID_79_" d="M451.7 85.5H.1V-5.2h451.6"/></defs><clipPath id="SVGID_80_"><use xlink:href="#SVGID_79_" overflow="visible"/></clipPath></g></g></svg>