<svg id="Calque_1" data-name="Calque 1" xmlns="http://www.w3.org/2000/svg" viewBox="0 0 366.41 89.36"><defs><style>.cls-1{fill:#fff}.cls-2{fill:#f7e73b}.cls-3{fill:#c6aa69}</style></defs><title>nowave_logo</title><path class="cls-1" d="M5.24 30.61c-1-1.41-2.46-3.73-2.46-3.73S3 29.45 3 31.11v45.62H0V19.66h1l34.52 46.78c1 1.41 2.46 3.73 2.46 3.73s-.24-2.57-.24-4.23V20.32h3v57.07h-1z"/><path class="cls-1" d="M39.17 48.52c0-17.17 12.4-28.87 27.65-28.87s27.65 11.7 27.65 28.87-12.39 28.87-27.64 28.87-27.66-11.7-27.66-28.87zm52 0c0-14.76-10.41-25.8-24.31-25.8s-24.31 11-24.31 25.8 10.41 25.8 24.31 25.8 24.28-11.03 24.28-25.8zM165.28 19.66h1l21.93 57.07h-3.34l-4.13-10.95h-29.92l-4.13 10.95h-3.26zm14.22 43.13l-12.16-32.18a51.38 51.38 0 0 1-1.59-5.14 51.38 51.38 0 0 1-1.59 5.14l-12.23 32.18h27.57zM171.75 20.32h3.5l17.48 46a51.5 51.5 0 0 1 1.51 5.14 51.5 51.5 0 0 1 1.51-5.14l17.48-46h3.26l-21.85 57.07h-1z"/><path class="cls-1" d="M213.87 20.32h31.55v3h-28.29V53.5h25.35v3h-25.35v17.24h29.4v3h-32.66V20.32zM156.24 20.32l-16.72 45.37-1.26 4.15a29.26 29.26 0 0 0-1-4.15l-15.49-46h-.47v6.79a28.55 28.55 0 0 0 .87 4.16l15.73 46.78h.87l20.76-57.07h-3.34z"/><path class="cls-1" d="M86.49 20.32l16.72 45.37 1.26 4.15a29.26 29.26 0 0 1 1-4.15l15.49-46h.47v6.79a28.55 28.55 0 0 1-.87 4.16l-15.77 46.75h-.87L83.16 20.32h3.34z"/><path class="cls-2" d="M335.75 37.35c-16 0-29.06-16.59-30.54-18.52l30.63 70.53 30.56-70.58c-.99 1-14.33 18.57-30.65 18.57z"/><path class="cls-3" d="M335.75 0c-16.55 0-30 17.82-30.66 18.66.62.84 14.11 18.66 30.66 18.66s30-17.82 30.66-18.66C365.78 17.82 352.3 0 335.75 0zm0 35.59a16.93 16.93 0 1 1 16.93-16.93 16.93 16.93 0 0 1-16.93 16.93z"/></svg>