<svg xmlns="http://www.w3.org/2000/svg" id="Calque_1" viewBox="0 0 121.4 121.4" width="121.4" height="121.4"><style id="style3">.st0{fill:#ffeb00}</style><g id="g5" transform="translate(-706.8 -300.4)"><path class="st0" d="M725.1 463.5h-1.8l-3.9-9.9h1.8l3 7.4 3-7.4h1.8l-3.9 9.9z" id="path7" fill="#ffeb00"/><path class="st0" d="M738.3 462.1c-1 1-2.2 1.5-3.6 1.5s-2.7-.5-3.6-1.5c-1-1-1.5-2.2-1.5-3.6s.5-2.7 1.5-3.6c1-1 2.2-1.5 3.6-1.5s2.7.5 3.6 1.5c1 1 1.5 2.2 1.5 3.6s-.5 2.6-1.5 3.6zm-1.2-6.2c-.7-.7-1.5-1-2.4-1-1 0-1.8.3-2.4 1-.7.7-1 1.5-1 2.5s.3 1.8 1 2.5 1.5 1 2.4 1c1 0 1.8-.3 2.4-1 .7-.7 1-1.5 1-2.5 0-.9-.3-1.8-1-2.5z" id="path9" fill="#ffeb00"/><path class="st0" d="M741.9 453.6h1.6v9.9h-1.6v-9.9z" id="path11" fill="#ffeb00"/><path class="st0" d="M754 456.8c0 1.6-.7 2.7-2.1 3.1l2.5 3.6h-2.1l-2.3-3.3h-2.2v3.3h-1.6v-9.9h3.6c1.5 0 2.5.3 3.2.8.6.4 1 1.3 1 2.4zm-2.2 1.4c.3-.3.5-.8.5-1.4 0-.6-.2-1.1-.5-1.3-.3-.2-1-.4-1.8-.4h-2.1v3.5h2c.9 0 1.5-.1 1.9-.4z" id="path13" fill="#ffeb00"/><path class="st0" d="M760.1 463.5v-9.9h1.6v8.3h4.4v1.6h-6z" id="path15" fill="#ffeb00"/><path class="st0" d="M774.8 453.6v1.6h-5.2v2.6h4.7v1.5h-4.7v2.6h5.3v1.6h-7v-9.9h6.9z" id="path17" fill="#ffeb00"/><path class="st0" d="M782.5 455.1v2.7h4.3v1.5h-4.3v4.1h-1.6v-9.9h6.5v1.6h-4.9z" id="path19" fill="#ffeb00"/><path class="st0" d="M789.3 453.6h1.6v9.9h-1.6v-9.9z" id="path21" fill="#ffeb00"/><path class="st0" d="M793.6 463.5v-9.9h1.6v8.3h4.4v1.6h-6z" id="path23" fill="#ffeb00"/><path class="st0" d="M803.1 463.5h-1.6v-9.9h2.6l2.9 6.2 2.9-6.2h2.5v9.9h-1.6v-7.7l-3.4 6.9h-.9l-3.4-6.9v7.7z" id="path25" fill="#ffeb00"/></g><path class="st0" d="M60.7 121.4c33.5 0 60.7-27.2 60.7-60.7S94.2 0 60.7 0 0 27.2 0 60.7c.1 33.5 27.2 60.7 60.7 60.7zM33.4 32.5l65.5 28.2L34.2 89C36 87.6 51 75.5 51 60.8c.1-15.1-15.5-27.4-17.6-28.3z" id="path27" fill="#ffeb00"/></svg>