<svg xmlns="http://www.w3.org/2000/svg" id="Calque_1" viewBox="0 0 121.4 121.4" width="121.4" height="121.4"><style id="style3">.st0{fill:#fff}</style><g id="g5" transform="translate(-621.8 -302.5)"><path class="st0" d="M621 465.5h-4.3v-9.9h3.8c.7 0 1.2.1 1.7.2.5.2.8.4 1.1.7.4.5.7 1.1.7 1.7 0 .8-.2 1.3-.7 1.7-.2.1-.3.2-.4.2-.1 0-.2.1-.3.2.6.1 1.1.4 1.4.8.4.4.5.9.5 1.6 0 .7-.2 1.3-.7 1.8-.6.7-1.5 1-2.8 1zm-2.6-5.8h2.1c1.2 0 1.8-.4 1.8-1.2 0-.5-.1-.8-.4-1-.3-.2-.7-.3-1.3-.3h-2.1v2.5zm0 4.2h2.6c.6 0 1.1-.1 1.4-.3.3-.2.5-.6.5-1.1 0-.9-.7-1.3-2.1-1.3h-2.4v2.7z" id="path7" fill="#fff"/><path class="st0" d="M627.8 463.2l-1 2.2H625l4.3-9.9h1.8l4.3 9.9h-1.8l-1-2.2h-4.8zm4.2-1.5l-1.8-4.1-1.8 4.1h3.6z" id="path9" fill="#fff"/><path class="st0" d="M644 455.6h1.6v9.9h-1.8l-5.5-7.2v7.2h-1.6v-9.9h1.6l5.6 7.4v-7.4z" id="path11" fill="#fff"/><path class="st0" d="M655.7 456.9c.9.9 1.4 2.1 1.4 3.6s-.5 2.8-1.4 3.6c-.9.9-2.3 1.3-4.2 1.3h-3.2v-9.9h3.3c1.8.1 3.2.5 4.1 1.4zm-.3 3.6c0-2.3-1.3-3.4-3.8-3.4H650v6.8h1.8c1.2 0 2.1-.3 2.7-.9.6-.5.9-1.4.9-2.5z" id="path13" fill="#fff"/><path class="st0" d="M666 455.6v1.6h-5.2v2.6h4.7v1.5h-4.7v2.6h5.3v1.6h-7v-9.9h6.9z" id="path15" fill="#fff"/><path class="st0" d="M667.9 462v-1.5h4.6v1.5h-4.6z" id="path17" fill="#fff"/><path class="st0" d="M676.1 463.2l-1 2.2h-1.8l4.3-9.9h1.8l4.3 9.9H682l-1-2.2h-4.9zm4.2-1.5l-1.8-4.1-1.8 4.1h3.6z" id="path19" fill="#fff"/><path class="st0" d="M692.3 455.6h1.6v9.9h-1.8l-5.5-7.2v7.2H685v-9.9h1.6l5.6 7.4v-7.4z" id="path21" fill="#fff"/><path class="st0" d="M704 455.6h1.6v9.9h-1.8l-5.5-7.2v7.2h-1.6v-9.9h1.6l5.6 7.4v-7.4z" id="path23" fill="#fff"/><path class="st0" d="M716.4 464.1c-1 1-2.2 1.5-3.6 1.5s-2.7-.5-3.6-1.5c-1-1-1.5-2.2-1.5-3.6s.5-2.7 1.5-3.6c1-1 2.2-1.5 3.6-1.5s2.7.5 3.6 1.5c1 1 1.5 2.2 1.5 3.6s-.5 2.6-1.5 3.6zm-1.2-6.2c-.7-.7-1.5-1-2.4-1-1 0-1.8.3-2.4 1-.7.7-1 1.5-1 2.5s.3 1.8 1 2.5 1.5 1 2.4 1c1 0 1.8-.3 2.4-1 .7-.7 1-1.5 1-2.5 0-.9-.3-1.8-1-2.5z" id="path25" fill="#fff"/><path class="st0" d="M727.2 455.6h1.6v9.9H727l-5.5-7.2v7.2H720v-9.9h1.6l5.6 7.4v-7.4z" id="path27" fill="#fff"/><path class="st0" d="M736 464c.6 0 1.1-.1 1.5-.3.4-.2.8-.5 1.3-.9l1.1 1.1c-1 1.2-2.3 1.7-3.7 1.7-1.5 0-2.7-.5-3.7-1.4-1-.9-1.5-2.2-1.5-3.6 0-1.5.5-2.7 1.5-3.7s2.2-1.5 3.7-1.5 2.8.6 3.8 1.7l-1 1.2c-.5-.5-.9-.8-1.3-.9-.4-.2-.9-.3-1.5-.3-1 0-1.8.3-2.5 1-.7.6-1 1.5-1 2.5s.3 1.8 1 2.5c.6.5 1.4.9 2.3.9z" id="path29" fill="#fff"/><path class="st0" d="M748.6 455.6v1.6h-5.2v2.6h4.7v1.5h-4.7v2.6h5.3v1.6h-7v-9.9h6.9z" id="path31" fill="#fff"/></g><g id="g33" transform="translate(-621.8 -302.5)"><circle class="st0" cx="682.5" cy="363.1" r="20.8" id="circle35" fill="#fff"/><path class="st0" d="M682.5 302.5c-33.5 0-60.7 27.2-60.7 60.7s27.2 60.7 60.7 60.7 60.7-27.2 60.7-60.7c-.1-33.6-27.2-60.7-60.7-60.7zm0 83.6c-20.4 0-37-21.9-37.7-23 .8-1 17.4-23 37.7-23 20.4 0 37 21.9 37.7 23-.8 1-17.4 23-37.7 23z" id="path37" fill="#fff"/></g></svg>