<svg id="Calque_1" data-name="Calque 1" xmlns="http://www.w3.org/2000/svg" viewBox="0 0 190.1 224.67"><defs><style>.cls-1{fill:#fff}</style></defs><title>Plan de travail 2</title><path class="cls-1" d="M190.1 112.34a95.29 95.29 0 0 0-67.57-91.25 28.44 28.44 0 0 0-55 0 95.42 95.42 0 0 0-39.76 158.6q2.39 2.4 4.94 4.62V200h25A94.31 94.31 0 0 0 83 206.87l12.09 17.8 12.09-17.8a95.23 95.23 0 0 0 83-94.54zM52 172.8v-15.37c.09-3.73 1.64-6.36 3.85-9.13l31.61-30.7v74.59a79 79 0 0 1-27-7.5V172.8zm-36.81-60.46A80.22 80.22 0 0 1 67.82 36.9a28.56 28.56 0 0 0 19.64 19.19v41.37c-.2 3.21-.85 6.27-2.78 8.68L50 139.86c-.29.28-.14.14 0 0-4.7 4.89-8.7 11.56-8.7 18.89v12.87q-1.35-1.24-2.65-2.54a80.13 80.13 0 0 1-23.46-56.74zm87.46 79.85v-98l30.78 19.14a10.67 10.67 0 0 1 4.33 9.21v17.83a14.82 14.82 0 1 0 9.79 0v-17.56c0-6.65-3.44-14.54-8.72-18.07-.1-.09-33.75-21.61-33.75-21.61-1.6-1.09-2.23-4.67-2.42-7.82V56.1a28.56 28.56 0 0 0 19.63-19.2 80.41 80.41 0 0 1 29.21 132.19 79.42 79.42 0 0 1-48.86 23.1z"/></svg>