<?xml version="1.0" encoding="utf-8"?>
<!-- Generator: Adobe Illustrator 18.0.0, SVG Export Plug-In . SVG Version: 6.00 Build 0)  -->
<!DOCTYPE svg PUBLIC "-//W3C//DTD SVG 1.1//EN" "http://www.w3.org/Graphics/SVG/1.1/DTD/svg11.dtd">
<svg version="1.1" id="Calque_1" xmlns="http://www.w3.org/2000/svg" xmlns:xlink="http://www.w3.org/1999/xlink" x="0px" y="0px"
	 viewBox="0 0 357.3 518.8" enable-background="new 0 0 357.3 518.8" xml:space="preserve">
<g>
	<g>
		<g>
			<path fill="#FFFF00" d="M178.6,216.1c-93,0-169.3-95.9-177.9-107.2l178.5,409.8l178.1-412.4h-0.1
				C351.5,116.4,273.7,216.1,178.6,216.1z"/>
		</g>
	</g>
	<path fill="#BB9D56" d="M178.6,0C82.2,0,3.6,103.8,0,108.7c3.6,4.9,82.2,108.7,178.6,108.7c96.4,0,175-103.8,178.6-108.7
		C353.6,103.8,275.1,0,178.6,0z M178.6,207.3c-54.5,0-98.6-44.2-98.6-98.6s44.2-98.6,98.6-98.6s98.6,44.2,98.6,98.6
		S233.1,207.3,178.6,207.3z"/>
</g>
</svg>
